<?xml version="1.0" encoding="UTF-8"?>
<svg width="1024px" height="1024px" viewBox="0 0 1024 1024" version="1.1" xmlns="http://www.w3.org/2000/svg" xmlns:xlink="http://www.w3.org/1999/xlink">
    <!-- Generator: Sketch 59.1 (86144) - https://sketch.com -->
    <title>App-icon</title>
    <desc>Created with Sketch.</desc>
    <defs>
        <polygon id="path-1" points="0.509386662 0.1712 111.908581 0.1712 111.908581 183 0.509386662 183"></polygon>
        <polygon id="path-3" points="0.261831132 0.179443396 136.950896 0.179443396 136.950896 136.997764 0.261831132 136.997764"></polygon>
    </defs>
    <g id="App-icon" stroke="none" stroke-width="1" fill="none" fill-rule="evenodd">
        <g id="Group" transform="translate(88.000000, 372.000000)">
            <path d="M94.9188728,137.25743 C96.3451142,134.269546 96.3616025,129.37296 94.9600937,126.360915 L81.8353751,98.3344024 C80.4338663,95.3304112 78.1090103,90.4418787 76.6580364,87.4459411 L36.8964049,5.42812344 C35.4536752,2.44023947 31.512962,0 28.1328523,0 L4.0681203,0 C0.688010631,0 -0.903114163,2.45634666 0.523127233,5.43617704 L58.4054442,126.425344 C59.8316856,129.405174 59.8399298,134.309814 58.4136884,137.297698 L18.8581611,220.555769 C17.4319197,223.543653 19.0312887,226 22.4031542,226 L46.4843745,226 C49.8644842,226 53.7969533,223.543653 55.2231946,220.555769 L94.9188728,137.25743 Z" id="Fill-1" fill="#FFFFFF"></path>
            <path d="M88.5131802,220.555769 C87.1109772,223.543653 88.6833898,226 91.9984245,226 L115.957453,226 C119.280593,226 123.138677,223.543653 124.54088,220.555769 L225.483282,5.43617704 C226.89359,2.44829307 225.313072,0 222.006143,0 L198.05522,0 C194.723974,0 190.857785,2.45634666 189.463687,5.43617704 L88.5131802,220.555769 Z" id="Fill-3" fill="#FFFFFF"></path>
            <path d="M74.2048399,0 C70.7126805,0 69.0562527,2.42314811 70.550453,5.35476008 L111.286621,85.7953325 C112.78936,88.7348892 115.222772,88.7348892 116.716972,85.7953325 L157.444602,5.35476008 C158.947341,2.41520336 157.290913,0 153.798753,0 L74.2048399,0 Z" id="Fill-5" fill="#42A63B"></path>
            <path d="M322,221.607836 C322,224.019061 320.048193,226 317.654618,226 L301.975904,226 C299.590361,226 297.638554,224.02718 297.638554,221.607836 L297.638554,205.200141 C297.638554,202.788916 296.26506,202.228733 294.60241,203.949876 C294.60241,203.949876 273.39759,225.853865 253.742972,225.853865 C234.26506,225.853865 217.767068,219.034239 204.26506,205.370632 C190.746988,191.707024 184,175.591599 184,156.991881 C184,138.221673 190.746988,122.016943 204.26506,108.410166 C217.767068,94.8033886 234.26506,88 253.742972,88 C273.39759,88 288.032129,96.2566184 297.638554,112.761737 L297.638554,104.107307 C297.638554,101.687963 299.590361,99.715143 301.975904,99.715143 L317.662651,99.715143 C320.056225,99.715143 322,101.687963 322,104.107307 L322,221.607836 Z M297.630522,166.791034 L297.630522,151.316978 C297.630522,148.897635 296.987952,145.057536 296.192771,142.784328 C296.192771,142.784328 291.839357,130.184257 285.373494,123.656901 C276.313253,114.401694 265.759036,109.78221 253.73494,109.78221 C241.614458,109.78221 231.116466,114.31239 222.232932,123.380868 C213.349398,132.457466 208.907631,143.661137 208.907631,157 C208.907631,170.249559 213.349398,181.355807 222.232932,190.334981 C231.116466,199.322273 241.614458,203.819979 253.73494,203.819979 C265.759036,203.819979 276.313253,199.241087 285.373494,190.067067 C291.839357,183.531592 295.927711,175.770208 297.630522,166.791034 L297.630522,166.791034 Z" id="Fill-7" fill="#FFFFFF"></path>
            <g id="Group-11" transform="translate(327.000000, 97.000000)">
                <mask id="mask-2" fill="white">
                    <use xlink:href="#path-1"></use>
                </mask>
                <g id="Clip-10"></g>
                <path d="M32.0504831,178.8992 C31.058088,181.1472 28.3365194,183.0032 25.9908581,183.0032 L8.77430571,183.0032 C6.43616257,183.0032 5.32347708,181.1472 6.31587224,178.8832 L41.4857553,97.9232 C42.4706323,95.6672 42.4706323,91.9712 41.4857553,89.7152 L0.872735148,4.2752 C-0.119660013,2.0272 0.99302547,0.1712 3.33116862,0.1712 L20.547721,0.1712 C22.8858642,0.1712 25.6299872,2.0192 26.6148642,4.2672 L54.3944106,55.6912 C55.3868057,57.9392 57.0257614,57.9392 58.0181565,55.6912 L85.7977029,4.2672 C86.7976162,2.0192 89.534221,0.1712 91.8723642,0.1712 L109.088917,0.1712 C111.434578,0.1712 112.532227,2.0272 111.54735,4.2752 L32.0504831,178.8992 Z" id="Fill-9" fill="#FFFFFF" mask="url(#mask-2)"></path>
            </g>
            <path d="M569,217.509045 C569,219.984624 566.909588,222 564.360105,222 L562.130331,222 C559.580848,222 557.482238,219.984624 557.482238,217.509045 L557.482238,198.362975 C557.482238,195.887395 556.187002,195.458929 554.604847,197.387025 C554.604847,197.387025 552.875134,199.489681 550.284662,202.084279 C536.676488,215.358781 520.16633,221.992065 500.795176,221.992065 C481.604372,221.992065 465.176191,215.374651 451.502436,202.147755 C437.845075,188.912926 431,173.027956 431,154.453174 C431,135.695897 437.845075,119.731582 451.502436,106.552294 C465.176191,93.3650715 481.604372,86.7714603 500.795176,86.7714603 C520.16633,86.7714603 536.66829,93.3650715 550.284662,106.552294 C552.875134,109.146892 555.277058,111.884312 557.482238,114.764554 L557.482238,33.4909554 C557.482238,31.0153758 559.572651,29 562.122134,29 L564.351907,29 C566.90139,29 568.991802,31.0153758 568.991802,33.4909554 L568.991802,217.509045 L569,217.509045 Z M557.490436,165.315573 L557.490436,147.938908 C557.490436,145.471263 556.80183,141.551595 555.957467,139.218837 C555.957467,139.218837 550.104313,123.072028 541.660687,114.899441 C530.33967,103.949762 516.723298,98.4669873 500.803374,98.4669873 C484.875252,98.4669873 471.283474,103.949762 460.011643,114.899441 C448.739812,125.857055 443.099798,139.044277 443.099798,154.453174 C443.099798,169.86207 448.739812,183.001686 460.011643,193.872019 C471.283474,204.726484 484.875252,210.161651 500.803374,210.161651 C516.723298,210.161651 530.33967,204.686811 541.660687,193.729198 C550.096115,185.564545 555.375431,176.090692 557.490436,165.315573 L557.490436,165.315573 Z" id="Fill-12" fill="#FFFFFF"></path>
            <path d="M647,88 C666.152708,88 682.436156,94.7291398 695.858452,108.179322 C709.296958,121.629504 716,137.930055 716,157.064781 C716,176.021359 709.296958,192.249032 695.858452,205.7478 C682.444262,219.246567 666.160813,226 647,226 C628.033713,226 611.790791,219.246567 598.271232,205.7478 C584.767884,192.240934 578,176.021359 578,157.064781 C578,137.938153 584.759779,121.629504 598.271232,108.179322 C611.790791,94.7291398 628.033713,88 647,88 M606.668272,116.706138 C595.523552,127.88898 589.955245,141.34726 589.955245,157.064781 C589.955245,172.798498 595.523552,186.208192 606.668272,197.293862 C617.812992,208.371435 631.267708,213.926417 647.008105,213.926417 C662.740397,213.926417 676.195113,208.371435 687.339833,197.293862 C698.484553,186.208192 704.044755,172.798498 704.044755,157.064781 C704.044755,141.34726 698.484553,127.88898 687.339833,116.706138 C676.195113,105.531393 662.732292,99.935923 647.008105,99.935923 C631.259603,99.9440207 617.804887,105.531393 606.668272,116.706138" id="Fill-14" fill="#FFFFFF"></path>
            <g id="Group-18" transform="translate(712.000000, 88.000000)">
                <mask id="mask-4" fill="white">
                    <use xlink:href="#path-3"></use>
                </mask>
                <g id="Clip-17"></g>
                <path d="M68.5987368,0.179443396 C87.5776425,0.179443396 103.714529,6.85096226 117.001369,20.1859717 C130.304265,33.5209811 136.951699,49.6819528 136.951699,68.6528302 C136.951699,87.4470849 130.312293,103.535802 117.001369,116.918981 C103.722558,130.30216 87.5776425,136.997764 68.5987368,136.997764 C49.8205387,136.997764 33.7318217,130.30216 20.3406142,116.918981 C6.9494066,103.527774 0.261831132,87.4470849 0.261831132,68.6528302 C0.261831132,49.6899811 6.95743491,33.5209811 20.3406142,20.1859717 C33.7237934,6.85096226 49.8205387,0.179443396 68.5987368,0.179443396 M28.6579349,28.6397736 C17.6190198,39.7268585 12.1035764,53.0698962 12.1035764,68.6528302 C12.1035764,84.2518208 17.6109915,97.5466887 28.6579349,108.537434 C39.6888217,119.520151 53.0077745,125.027566 68.5987368,125.027566 C84.1896991,125.027566 97.5247085,119.520151 108.555595,108.537434 C119.59451,97.5466887 125.101925,84.2518208 125.101925,68.6528302 C125.101925,53.0698962 119.59451,39.7268585 108.555595,28.6397736 C97.5247085,17.560717 84.1896991,12.0131604 68.5987368,12.0131604 C53.0077745,12.0131604 39.6807934,17.560717 28.6579349,28.6397736" id="Fill-16" fill="#FFFFFF" mask="url(#mask-4)"></path>
            </g>
        </g>
    </g>
</svg>